<?xml version="1.0" standalone="no"?>
<!DOCTYPE svg PUBLIC "-//W3C//DTD SVG 20010904//EN"
 "http://www.w3.org/TR/2001/REC-SVG-20010904/DTD/svg10.dtd">
<svg version="1.0" xmlns="http://www.w3.org/2000/svg"
 width="1200.000000pt" height="674.000000pt" viewBox="0 0 1200.000000 674.000000"
 preserveAspectRatio="xMidYMid meet">

<g transform="translate(0.000000,674.000000) scale(0.100000,-0.100000)"
fill="#000000" stroke="none">
<path d="M8413 4806 l-28 -24 -3 -1089 c-1 -598 0 -1098 3 -1110 3 -12 15 -32
27 -43 22 -20 29 -20 1483 -20 l1462 0 21 23 22 23 0 1106 c0 1074 -1 1106
-19 1129 l-19 24 -1460 3 -1461 2 -28 -24z m2517 -1141 l0 -685 -175 0 -175 0
0 685 0 685 175 0 175 0 0 -685z m-821 345 c149 -25 242 -117 271 -269 6 -30
10 -210 10 -407 l0 -354 -180 0 -180 0 0 300 c0 327 -4 355 -57 394 -39 29
-120 32 -160 7 -68 -43 -68 -42 -71 -388 l-3 -313 -180 0 -179 0 0 505 0 505
180 0 180 0 0 -67 0 -67 48 48 c52 53 122 93 186 106 58 11 63 11 135 0z
m-899 -845 l0 -185 -185 0 -185 0 0 185 0 185 185 0 185 0 0 -185z"/>
<path d="M4568 4360 c-342 -54 -588 -321 -605 -656 -4 -58 -1 -129 6 -169 47
-269 238 -470 517 -547 63 -17 107 -21 214 -21 204 0 350 44 518 156 l62 42 0
287 c0 275 -1 289 -20 308 -19 19 -33 20 -285 20 l-266 0 -24 -25 c-23 -22
-25 -32 -25 -118 0 -125 1 -125 150 -129 l115 -3 3 -82 3 -82 -40 -20 c-90
-47 -243 -48 -345 -2 -179 79 -258 327 -164 518 34 71 115 147 185 173 49 18
73 21 155 18 93 -4 102 -6 190 -51 65 -33 100 -45 116 -41 28 8 182 199 182
227 0 49 -154 141 -297 177 -88 23 -263 33 -345 20z"/>
<path d="M623 4325 l-23 -16 0 -644 0 -644 22 -15 c19 -14 73 -16 393 -16 401
1 474 7 578 53 75 34 159 114 187 179 59 138 22 312 -85 394 -20 15 -62 40
-92 54 l-54 26 50 32 c104 68 145 145 145 272 0 77 -3 91 -33 146 -40 76 -114
134 -210 166 -63 21 -85 22 -461 26 -350 3 -398 1 -417 -13z m678 -299 c66
-28 92 -86 65 -149 -25 -61 -58 -71 -243 -75 l-163 -4 0 121 0 121 154 0 c110
0 163 -4 187 -14z m22 -493 c24 -3 52 -19 73 -38 29 -28 34 -39 34 -78 0 -56
-34 -102 -88 -117 -20 -5 -115 -10 -209 -10 l-173 0 0 118 c0 65 3 122 7 125
8 9 305 9 356 0z"/>
<path d="M2014 4333 c-33 -23 -34 -51 -34 -675 0 -614 0 -625 20 -646 20 -21
29 -22 169 -22 197 0 185 -15 189 226 l4 184 79 0 79 0 121 -182 c67 -101 131
-193 142 -205 20 -22 27 -23 179 -23 145 0 160 2 178 20 38 38 27 66 -105 257
-69 99 -125 185 -125 190 0 5 18 17 40 27 56 24 141 105 172 163 47 86 61 156
55 266 -5 88 -9 108 -41 173 -57 115 -150 187 -299 232 -42 12 -125 16 -432
19 -209 2 -385 0 -391 -4z m658 -324 c61 -13 127 -70 129 -110 0 -13 2 -32 4
-42 11 -58 -50 -136 -122 -156 -21 -6 -102 -11 -180 -11 l-143 0 -1 128 c-2
127 -2 180 0 195 2 11 254 8 313 -4z"/>
<path d="M3414 4319 c-18 -20 -19 -46 -19 -654 0 -608 1 -634 19 -654 18 -20
29 -21 168 -21 135 0 150 2 168 20 20 20 20 33 20 655 l0 634 -22 21 c-20 18
-35 20 -168 20 -137 0 -148 -1 -166 -21z"/>
<path d="M5511 4314 c-21 -26 -21 -35 -21 -649 0 -614 0 -623 21 -649 20 -26
20 -26 168 -26 201 0 185 -23 189 276 l3 234 240 0 239 0 0 -235 c0 -297 -15
-275 183 -275 113 0 147 3 165 16 l22 15 0 644 0 644 -22 15 c-31 22 -294 23
-324 2 -18 -13 -19 -31 -24 -253 l-5 -238 -237 -3 -237 -2 -3 234 c-4 299 12
276 -189 276 -148 0 -148 0 -168 -26z"/>
<path d="M6894 4332 c-26 -17 -34 -56 -34 -162 0 -104 1 -112 25 -135 24 -25
26 -25 205 -25 l180 0 0 -490 c0 -477 1 -491 20 -510 18 -18 33 -20 165 -20
132 0 147 2 165 20 19 19 20 33 20 510 l0 490 179 0 c234 0 225 -6 229 157 3
109 2 121 -18 146 l-21 27 -552 0 c-304 0 -557 -4 -563 -8z"/>
</g>
</svg>
